<svg xmlns="http://www.w3.org/2000/svg" width="16" height="16" viewBox="0 0 16 16"><path d="M8 1.5c-2 0-3 .8-3 2.2V6h3v.8H3.6C2.2 6.8 1.5 8 1.5 9.6c0 1.2.5 2.2 1.6 2.2h1.4v-1.6c0-1.3 1.1-2.4 2.4-2.4h3.2c1.1 0 1.9-.9 1.9-2V3.7c0-1.4-1.3-2.2-3-2.2Zm-1 1.6a.7.7 0 1 1 0 1.4.7.7 0 0 1 0-1.4Z" fill="#3776AB"/><path d="M8 14.5c2 0 3-.8 3-2.2V10H8v-.8h4.4c1.4 0 2.1-1.2 2.1-2.8 0-1.2-.5-2.2-1.6-2.2h-1.4v1.6c0 1.3-1.1 2.4-2.4 2.4H5.9c-1.1 0-1.9.9-1.9 2v2.1c0 1.4 1.3 2.2 3 2.2Zm1-1.6a.7.7 0 1 1 0-1.4.7.7 0 0 1 0 1.4Z" fill="#FFD43B"/></svg>
